<svg width="431" height="332" viewBox="0 0 431 332" fill="none" xmlns="http://www.w3.org/2000/svg">
<g clip-path="url(#clip0)">
<path d="M99.2416 229.763L132.611 177.155L57.8791 129.514L19.2855 190.359L81.0983 229.763H99.2416Z" fill="#F0F0F0"/>
<path d="M146.529 246.175H63.8717V229.494H146.529V246.175ZM64.9452 245.099H145.456V230.57H64.9452V245.099Z" fill="#3F3D56"/>
<path d="M136.331 243.216C139.296 243.216 141.699 240.806 141.699 237.835C141.699 234.863 139.296 232.454 136.331 232.454C133.367 232.454 130.964 234.863 130.964 237.835C130.964 240.806 133.367 243.216 136.331 243.216Z" fill="#FC8195"/>
<path d="M121.303 243.216C124.267 243.216 126.67 240.806 126.67 237.835C126.67 234.863 124.267 232.454 121.303 232.454C118.338 232.454 115.935 234.863 115.935 237.835C115.935 240.806 118.338 243.216 121.303 243.216Z" fill="#FC8195"/>
<path d="M106.274 243.216C109.238 243.216 111.641 240.806 111.641 237.835C111.641 234.863 109.238 232.454 106.274 232.454C103.31 232.454 100.907 234.863 100.907 237.835C100.907 240.806 103.31 243.216 106.274 243.216Z" fill="#FC8195"/>
<path d="M91.2453 243.216C94.2096 243.216 96.6127 240.806 96.6127 237.835C96.6127 234.863 94.2096 232.454 91.2453 232.454C88.281 232.454 85.878 234.863 85.878 237.835C85.878 240.806 88.281 243.216 91.2453 243.216Z" fill="#FC8195"/>
<path d="M76.2167 243.216C79.181 243.216 81.5841 240.806 81.5841 237.835C81.5841 234.863 79.181 232.454 76.2167 232.454C73.2524 232.454 70.8493 234.863 70.8493 237.835C70.8493 240.806 73.2524 243.216 76.2167 243.216Z" fill="#FC8195"/>
<path d="M244.752 60.8039V19.9092H265.148V0H165.315V100.084H250.656V90.2988C250.656 88.4747 251.015 86.6685 251.711 84.9832C252.407 83.2979 253.428 81.7667 254.715 80.4768C256.001 79.187 257.529 78.1638 259.21 77.4658C260.891 76.7677 262.692 76.4084 264.512 76.4084H265.148V60.8039H244.752Z" fill="#F0F0F0"/>
<path d="M355.32 258.282H288.765V272.272H355.32V258.282Z" fill="#FC8195"/>
<path d="M369.812 189.407H272.126V202.321H369.812V189.407Z" fill="#F0F0F0"/>
<path d="M417.582 330.924H0V332H417.582V330.924Z" fill="#3F3D56"/>
<path d="M386.55 332H264.512C260.696 331.996 257.038 330.474 254.34 327.769C251.642 325.064 250.124 321.397 250.12 317.571V90.2989C250.124 86.4735 251.642 82.8061 254.34 80.1012C257.038 77.3962 260.696 75.8747 264.512 75.8703H386.55C390.366 75.8747 394.024 77.3962 396.723 80.1012C399.421 82.8061 400.938 86.4735 400.943 90.2989V317.571C400.938 321.397 399.421 325.064 396.722 327.769C394.024 330.474 390.366 331.996 386.55 332ZM264.512 76.9465C260.981 76.9505 257.595 78.3586 255.098 80.8618C252.602 83.3649 251.197 86.7588 251.193 90.2989V317.571C251.197 321.112 252.602 324.505 255.098 327.009C257.595 329.512 260.981 330.92 264.512 330.924H386.55C390.082 330.92 393.467 329.512 395.964 327.009C398.461 324.505 399.865 321.112 399.869 317.571V90.2989C399.865 86.7588 398.461 83.3649 395.964 80.8618C393.467 78.3586 390.082 76.9505 386.55 76.9465H264.512Z" fill="#3F3D56"/>
<path d="M311.039 86.6321C310.402 86.6321 309.78 86.4428 309.25 86.088C308.72 85.7332 308.308 85.229 308.064 84.6391C307.82 84.0491 307.756 83.4 307.881 82.7737C308.005 82.1474 308.312 81.5722 308.762 81.1207C309.212 80.6691 309.786 80.3617 310.411 80.2371C311.036 80.1125 311.683 80.1764 312.272 80.4208C312.86 80.6652 313.363 81.079 313.717 81.6099C314.071 82.1408 314.26 82.765 314.26 83.4036C314.259 84.2595 313.919 85.0802 313.315 85.6855C312.712 86.2907 311.893 86.6312 311.039 86.6321ZM311.039 81.2512C310.615 81.2512 310.199 81.3775 309.846 81.614C309.493 81.8505 309.218 82.1866 309.056 82.5799C308.893 82.9732 308.851 83.406 308.934 83.8235C309.016 84.241 309.221 84.6245 309.521 84.9255C309.821 85.2265 310.204 85.4315 310.62 85.5146C311.037 85.5976 311.469 85.555 311.861 85.3921C312.253 85.2292 312.588 84.9533 312.824 84.5994C313.06 84.2454 313.186 83.8293 313.186 83.4036C313.186 82.8329 312.959 82.2858 312.557 81.8823C312.154 81.4788 311.608 81.2518 311.039 81.2512Z" fill="#3F3D56"/>
<path d="M342.707 82.8655H319.09V83.9417H342.707V82.8655Z" fill="#3F3D56"/>
<path d="M391.281 91.4749V134.522C379.893 134.521 368.972 129.986 360.92 121.913C352.867 113.84 348.343 102.891 348.342 91.4749H391.281Z" fill="#FC8195"/>
<path d="M391.818 317.472H259.244V90.9368H391.818V317.472ZM260.318 316.395H390.745V92.013H260.318V316.395Z" fill="#3F3D56"/>
<path opacity="0.1" d="M360.151 131.831C368.154 131.831 374.643 125.327 374.643 117.303C374.643 109.279 368.154 102.775 360.151 102.775C352.147 102.775 345.659 109.279 345.659 117.303C345.659 125.327 352.147 131.831 360.151 131.831Z" fill="black"/>
<path d="M358.004 133.446C366.007 133.446 372.496 126.941 372.496 118.917C372.496 110.894 366.007 104.389 358.004 104.389C350 104.389 343.512 110.894 343.512 118.917C343.512 126.941 350 133.446 358.004 133.446Z" fill="#FC8195"/>
<path d="M285.544 100.084H265.148V107.618H285.544V100.084Z" fill="#3F3D56"/>
<path d="M296.816 171.65H276.42V179.183H296.816V171.65Z" fill="#3F3D56"/>
<path d="M375.179 199.63H276.42V185.64H375.179V199.63ZM277.493 198.554H374.106V186.716H277.493V198.554Z" fill="#3F3D56"/>
<path d="M369.812 230.301H272.126V243.216H369.812V230.301Z" fill="#F0F0F0"/>
<path d="M296.816 212.545H276.42V220.078H296.816V212.545Z" fill="#3F3D56"/>
<path d="M375.179 240.525H276.42V226.535H375.179V240.525ZM277.493 239.449H374.106V227.611H277.493V239.449Z" fill="#3F3D56"/>
<path d="M359.614 269.044H291.985V253.977H359.614V269.044ZM293.059 267.968H358.54V255.054H293.059V267.968Z" fill="#3F3D56"/>
<path d="M372.496 194.25C372.496 195.357 372.154 196.438 371.519 197.344C370.883 198.25 369.984 198.938 368.945 199.313C367.905 199.688 366.775 199.732 365.709 199.439C364.644 199.146 363.694 198.531 362.99 197.677L362.985 197.672C362.472 197.048 362.105 196.316 361.913 195.531C361.721 194.745 361.708 193.927 361.875 193.135C362.042 192.344 362.385 191.601 362.878 190.961C363.371 190.321 364.001 189.801 364.722 189.438C365.444 189.076 366.237 188.882 367.043 188.869C367.85 188.857 368.649 189.027 369.381 189.367C370.113 189.706 370.759 190.207 371.271 190.832C371.784 191.456 372.149 192.189 372.34 192.974C372.34 192.975 372.34 192.976 372.34 192.976C372.341 192.977 372.341 192.978 372.342 192.978C372.342 192.979 372.343 192.979 372.343 192.979C372.344 192.98 372.345 192.98 372.345 192.98C372.445 193.396 372.495 193.822 372.496 194.25Z" fill="#FC8195"/>
<path opacity="0.1" d="M372.496 194.25C372.495 195.357 372.154 196.438 371.519 197.344C370.883 198.25 369.984 198.938 368.945 199.313C367.905 199.688 366.775 199.732 365.709 199.439C364.644 199.146 363.694 198.531 362.99 197.677L362.985 197.672C362.886 197.256 362.835 196.83 362.834 196.402C362.834 195.294 363.176 194.213 363.811 193.307C364.447 192.401 365.346 191.714 366.385 191.339C367.425 190.964 368.555 190.92 369.621 191.212C370.686 191.505 371.636 192.12 372.34 192.974C372.34 192.975 372.34 192.976 372.34 192.976C372.341 192.977 372.341 192.978 372.342 192.978C372.342 192.979 372.343 192.979 372.343 192.979C372.344 192.98 372.345 192.98 372.345 192.98C372.444 193.396 372.495 193.822 372.496 194.25Z" fill="black"/>
<path d="M369.275 202.859C372.24 202.859 374.643 200.45 374.643 197.478C374.643 194.506 372.24 192.097 369.275 192.097C366.311 192.097 363.908 194.506 363.908 197.478C363.908 200.45 366.311 202.859 369.275 202.859Z" fill="#FC8195"/>
<path d="M372.496 235.144C372.496 236.252 372.154 237.333 371.519 238.239C370.883 239.145 369.984 239.833 368.945 240.208C367.905 240.582 366.775 240.627 365.709 240.334C364.644 240.041 363.694 239.426 362.99 238.572L362.985 238.566C362.472 237.943 362.105 237.211 361.913 236.425C361.721 235.64 361.708 234.821 361.875 234.03C362.042 233.239 362.385 232.496 362.878 231.856C363.371 231.216 364.001 230.695 364.722 230.333C365.444 229.971 366.237 229.776 367.043 229.764C367.85 229.752 368.649 229.922 369.381 230.261C370.113 230.601 370.759 231.102 371.271 231.726C371.784 232.351 372.149 233.083 372.34 233.869C372.34 233.87 372.34 233.87 372.34 233.871C372.341 233.872 372.341 233.872 372.342 233.873C372.342 233.873 372.343 233.874 372.343 233.874C372.344 233.874 372.345 233.874 372.345 233.874C372.445 234.29 372.495 234.717 372.496 235.144Z" fill="#FC8195"/>
<path opacity="0.1" d="M372.496 235.144C372.495 236.252 372.154 237.333 371.519 238.239C370.883 239.145 369.984 239.833 368.945 240.208C367.905 240.582 366.775 240.627 365.709 240.334C364.644 240.041 363.694 239.426 362.99 238.572L362.985 238.566C362.886 238.15 362.835 237.724 362.834 237.297C362.834 236.189 363.176 235.108 363.811 234.202C364.447 233.296 365.346 232.608 366.385 232.233C367.425 231.858 368.555 231.814 369.621 232.107C370.686 232.4 371.636 233.015 372.34 233.869C372.34 233.87 372.34 233.87 372.34 233.871C372.341 233.872 372.341 233.872 372.342 233.873C372.342 233.873 372.343 233.874 372.343 233.874C372.344 233.874 372.345 233.874 372.345 233.874C372.444 234.29 372.495 234.717 372.496 235.144Z" fill="black"/>
<path d="M369.275 243.754C372.24 243.754 374.643 241.345 374.643 238.373C374.643 235.401 372.24 232.992 369.275 232.992C366.311 232.992 363.908 235.401 363.908 238.373C363.908 241.345 366.311 243.754 369.275 243.754Z" fill="#FC8195"/>
<path d="M279.103 25.8282H251.193V53.8088H279.103V25.8282Z" fill="#F0F0F0"/>
<path d="M360.151 46.2755C358.877 46.2755 357.632 45.8968 356.572 45.1873C355.513 44.4778 354.688 43.4694 354.2 42.2895C353.713 41.1096 353.585 39.8113 353.834 38.5588C354.082 37.3062 354.696 36.1557 355.596 35.2527C356.497 34.3496 357.645 33.7346 358.894 33.4855C360.144 33.2363 361.439 33.3642 362.615 33.8529C363.792 34.3417 364.798 35.1693 365.506 36.2311C366.214 37.293 366.591 38.5414 366.591 39.8185C366.59 41.5304 365.91 43.1717 364.703 44.3822C363.495 45.5927 361.858 46.2736 360.151 46.2755ZM360.151 34.4376C359.089 34.4376 358.051 34.7532 357.169 35.3444C356.286 35.9357 355.598 36.7761 355.192 37.7593C354.786 38.7425 354.679 39.8244 354.886 40.8682C355.094 41.912 355.605 42.8708 356.355 43.6233C357.106 44.3759 358.062 44.8883 359.104 45.096C360.145 45.3036 361.224 45.197 362.205 44.7898C363.185 44.3825 364.024 43.6928 364.613 42.8079C365.203 41.9231 365.518 40.8827 365.518 39.8185C365.516 38.3919 364.95 37.0242 363.944 36.0154C362.938 35.0067 361.574 34.4392 360.151 34.4376Z" fill="#3F3D56"/>
<path d="M218.452 136.136H204.497V122.146H218.452V136.136ZM205.57 135.06H217.379V123.222H205.57V135.06Z" fill="#3F3D56"/>
<path d="M431 240.525H417.045V226.535H431V240.525ZM418.118 239.449H429.927V227.611H418.118V239.449Z" fill="#3F3D56"/>
<path d="M155.655 146.718L158.05 148.012L166.199 152.414L179.354 159.52L187.021 145.26C187.743 143.92 188.194 142.451 188.349 140.936C188.504 139.421 188.36 137.89 187.924 136.431C187.488 134.972 186.769 133.614 185.809 132.434C184.849 131.254 183.666 130.275 182.328 129.554C179.469 128.006 176.193 127.408 172.973 127.846C169.753 128.284 166.755 129.735 164.411 131.991L164.407 131.995C163.253 133.106 162.28 134.39 161.522 135.802L155.655 146.718Z" fill="#2F2E41"/>
<path d="M191.562 292.148L189.955 309.872L183.927 310.677L179.909 290.536L191.562 292.148Z" fill="#FFB8B8"/>
<path d="M182.32 310.677C182.32 310.677 189.954 306.649 191.562 309.872C191.562 309.872 190.356 319.54 195.178 320.748C200 321.957 202.009 330.416 195.178 331.222C188.347 332.027 183.927 329.61 181.516 329.61C179.105 329.61 181.516 321.151 181.516 321.151L182.32 310.677Z" fill="#2F2E41"/>
<path d="M142.942 292.148L144.549 309.872L150.576 310.677L154.594 290.536L142.942 292.148Z" fill="#FFB8B8"/>
<path d="M152.183 310.677C152.183 310.677 144.549 306.649 142.942 309.872C142.942 309.872 144.147 319.54 139.325 320.748C134.504 321.957 132.494 330.416 139.325 331.222C146.156 332.027 150.576 329.61 152.987 329.61C155.398 329.61 152.987 321.151 152.987 321.151L152.183 310.677Z" fill="#2F2E41"/>
<path d="M175.891 149.949C181.661 149.949 186.338 145.26 186.338 139.476C186.338 133.691 181.661 129.002 175.891 129.002C170.121 129.002 165.443 133.691 165.443 139.476C165.443 145.26 170.121 149.949 175.891 149.949Z" fill="#FFB8B8"/>
<path d="M142.54 160.02L150.978 173.313L161.023 172.508L177.498 173.716C177.498 173.716 179.053 170.598 180.323 167.565C181.018 166.05 181.553 164.466 181.918 162.84C182.32 160.02 176.694 157.2 176.694 157.2C176.694 157.2 176.473 157.16 176.104 157.071C175.613 156.954 174.858 156.761 174.03 156.479C172.162 155.843 169.916 154.763 169.462 153.172C168.658 150.352 174.685 146.324 174.685 146.324L167.453 139.476C167.453 139.476 161.027 148.422 153.224 150.461C152.772 150.581 152.313 150.675 151.85 150.743C151.826 150.747 151.806 150.751 151.782 150.755C143.344 151.963 142.54 160.02 142.54 160.02Z" fill="#FFB8B8"/>
<path d="M146.96 156.394L142.54 160.02C142.54 160.02 138.924 177.341 140.129 182.175C141.334 187.009 139.727 191.44 139.727 192.246C139.727 193.052 136.111 223.264 136.111 223.264C136.111 223.264 128.878 239.377 136.513 237.766C144.147 236.154 141.334 220.041 141.334 220.041L150.576 191.843V168.076L146.96 156.394Z" fill="#FFB8B8"/>
<path d="M178.703 159.617L181.918 162.034L183.525 195.871L195.58 224.875C195.58 224.875 204.42 238.974 198.794 239.377C193.169 239.78 189.553 224.875 189.553 224.875L178.703 197.08L177.096 170.091L178.703 159.617Z" fill="#FFB8B8"/>
<path d="M158.613 162.034C158.613 162.034 166.649 167.674 179.507 165.659C179.507 165.659 183.123 172.91 181.114 176.939C179.105 180.967 183.525 190.635 184.329 191.843C185.132 193.052 194.374 218.027 197.589 245.016C200.803 272.006 209.643 290.536 202.009 292.953C194.374 295.37 178.703 298.19 177.096 295.773C175.489 293.356 173.078 233.334 173.078 233.334L168.658 256.296C168.658 256.296 174.685 295.37 170.265 296.176C165.845 296.981 138.12 294.564 138.923 289.73C139.727 284.896 147.763 259.518 147.763 259.518C147.763 259.518 147.362 208.762 155.398 199.094C155.398 199.094 158.613 193.857 154.193 187.009C149.773 180.161 150.174 169.285 150.174 169.285C150.174 169.285 153.389 169.285 158.613 162.034Z" fill="#2F2E41"/>
<path d="M151.85 150.743L158.613 165.659L160.22 164.854L153.224 150.461L151.85 150.743Z" fill="#2F2E41"/>
<path d="M174.03 156.479L179.105 167.674L180.323 167.565L179.909 165.659L176.104 157.071C175.613 156.954 174.858 156.761 174.03 156.479Z" fill="#2F2E41"/>
<path d="M158.05 148.012C158.436 149.258 159.181 150.362 160.191 151.186C161.2 152.01 162.43 152.516 163.725 152.643C165.021 152.769 166.325 152.51 167.474 151.897C168.623 151.283 169.566 150.344 170.185 149.196C165.102 142.533 169.462 138.348 177.719 135.181C178.341 134.024 178.605 132.708 178.479 131.399C178.352 130.091 177.84 128.85 177.008 127.834C174.732 127.542 172.419 127.764 170.24 128.483C168.06 129.202 166.069 130.401 164.411 131.991L164.407 131.995L158.54 142.904C158.122 143.679 157.864 144.531 157.78 145.408C157.695 146.285 157.787 147.17 158.05 148.012Z" fill="#2F2E41"/>
<path d="M169.663 143.101C170.439 143.101 171.069 142.019 171.069 140.684C171.069 139.349 170.439 138.267 169.663 138.267C168.886 138.267 168.256 139.349 168.256 140.684C168.256 142.019 168.886 143.101 169.663 143.101Z" fill="#FFB8B8"/>
<path d="M173.854 136.74L185.932 142.227L188.146 137.328C187.765 135.538 186.966 133.864 185.816 132.442L177.502 128.668L173.854 136.74Z" fill="#2F2E41"/>
<path d="M202.887 244.83C205.851 244.83 208.254 242.421 208.254 239.449C208.254 236.477 205.851 234.068 202.887 234.068C199.922 234.068 197.519 236.477 197.519 239.449C197.519 242.421 199.922 244.83 202.887 244.83Z" fill="#FC8195"/>
<path d="M30.5707 276.817C32.508 276.817 34.0785 275.243 34.0785 273.301C34.0785 271.359 32.508 269.784 30.5707 269.784C28.6334 269.784 27.0629 271.359 27.0629 273.301C27.0629 275.243 28.6334 276.817 30.5707 276.817Z" fill="#FF6584"/>
<path d="M48.293 291.629H47.2195V331.668H48.293V291.629Z" fill="#3F3D56"/>
<path d="M47.7564 297.291C50.8757 297.291 53.4044 294.756 53.4044 291.629C53.4044 288.501 50.8757 285.966 47.7564 285.966C44.6371 285.966 42.1084 288.501 42.1084 291.629C42.1084 294.756 44.6371 297.291 47.7564 297.291Z" fill="#3F3D56"/>
<path d="M47.7563 316.306C47.7563 316.306 46.9495 298.909 30.4089 300.931L47.7563 316.306Z" fill="#3F3D56"/>
</g>
<defs>
<clipPath id="clip0">
<rect width="431" height="332" fill="white"/>
</clipPath>
</defs>
</svg>
